<svg width="122" height="50" viewBox="0 0 122 50" fill="none" xmlns="http://www.w3.org/2000/svg">
<rect width="50" height="50" rx="10" fill="#1F4AF2"/>
<path d="M33.3945 24.8193C33.3945 26.8115 33.0723 28.5449 32.4277 30.0195C31.7832 31.4844 30.8896 32.6611 29.7471 33.5498L33.292 36.333L30.4941 38.8086L25.9531 35.1611C25.4355 35.249 24.8984 35.293 24.3418 35.293C22.5742 35.293 20.9971 34.8682 19.6104 34.0186C18.2236 33.1689 17.1494 31.958 16.3877 30.3857C15.626 28.8037 15.2402 26.9873 15.2305 24.9365V23.8818C15.2305 21.7822 15.6064 19.9365 16.3584 18.3447C17.1201 16.7432 18.1895 15.5176 19.5664 14.668C20.9531 13.8086 22.5352 13.3789 24.3125 13.3789C26.0898 13.3789 27.667 13.8086 29.0439 14.668C30.4307 15.5176 31.5 16.7432 32.252 18.3447C33.0137 19.9365 33.3945 21.7773 33.3945 23.8672V24.8193ZM28.9414 23.8525C28.9414 21.6162 28.541 19.917 27.7402 18.7549C26.9395 17.5928 25.7969 17.0117 24.3125 17.0117C22.8379 17.0117 21.7002 17.5879 20.8994 18.7402C20.0986 19.8828 19.6934 21.5625 19.6836 23.7793V24.8193C19.6836 26.9971 20.084 28.6865 20.8848 29.8877C21.6855 31.0889 22.8379 31.6895 24.3418 31.6895C25.8164 31.6895 26.9492 31.1133 27.7402 29.9609C28.5312 28.7988 28.9316 27.1094 28.9414 24.8926V23.8525Z" fill="white"/>
<path d="M61.1182 33.3887C60.0732 34.6582 58.6279 35.293 56.7822 35.293C55.083 35.293 53.7842 34.8047 52.8857 33.8281C51.9971 32.8516 51.543 31.4209 51.5234 29.5361V19.1504H55.7568V29.3896C55.7568 31.04 56.5088 31.8652 58.0127 31.8652C59.4482 31.8652 60.4346 31.3672 60.9717 30.3711V19.1504H65.2197V35H61.2354L61.1182 33.3887ZM72.8809 35H68.6328V19.1504H72.8809V35ZM68.3838 15.0488C68.3838 14.4141 68.5938 13.8916 69.0137 13.4814C69.4434 13.0713 70.0244 12.8662 70.7568 12.8662C71.4795 12.8662 72.0557 13.0713 72.4854 13.4814C72.915 13.8916 73.1299 14.4141 73.1299 15.0488C73.1299 15.6934 72.9102 16.2207 72.4707 16.6309C72.041 17.041 71.4697 17.2461 70.7568 17.2461C70.0439 17.2461 69.4678 17.041 69.0283 16.6309C68.5986 16.2207 68.3838 15.6934 68.3838 15.0488ZM81.2451 31.5869H88.9941V35H75.8398V32.4219L83.2959 22.5781H76.0596V19.1504H88.7598V21.6553L81.2451 31.5869ZM96.5088 31.5869H104.258V35H91.1035V32.4219L98.5596 22.5781H91.3232V19.1504H104.023V21.6553L96.5088 31.5869ZM116.094 35C115.898 34.6191 115.757 34.1455 115.669 33.5791C114.644 34.7217 113.311 35.293 111.67 35.293C110.117 35.293 108.828 34.8438 107.803 33.9453C106.787 33.0469 106.279 31.9141 106.279 30.5469C106.279 28.8672 106.899 27.5781 108.14 26.6797C109.39 25.7812 111.191 25.3271 113.545 25.3174H115.493V24.4092C115.493 23.6768 115.303 23.0908 114.922 22.6514C114.551 22.2119 113.96 21.9922 113.149 21.9922C112.437 21.9922 111.875 22.1631 111.465 22.5049C111.064 22.8467 110.864 23.3154 110.864 23.9111H106.631C106.631 22.9932 106.914 22.1436 107.48 21.3623C108.047 20.5811 108.848 19.9707 109.883 19.5312C110.918 19.082 112.08 18.8574 113.369 18.8574C115.322 18.8574 116.87 19.3506 118.013 20.3369C119.165 21.3135 119.741 22.6904 119.741 24.4678V31.3379C119.751 32.8418 119.961 33.9795 120.371 34.751V35H116.094ZM112.593 32.0557C113.218 32.0557 113.794 31.9189 114.321 31.6455C114.849 31.3623 115.239 30.9863 115.493 30.5176V27.793H113.911C111.792 27.793 110.664 28.5254 110.527 29.9902L110.513 30.2393C110.513 30.7666 110.698 31.2012 111.069 31.543C111.44 31.8848 111.948 32.0557 112.593 32.0557Z" fill="#181818"/>
</svg>
